<svg width="21" height="20" viewBox="0 0 21 20" fill="none" xmlns="http://www.w3.org/2000/svg">
<path fill-rule="evenodd" clip-rule="evenodd" d="M8.34146 3.72706C8.34146 3.58898 8.45339 3.47705 8.59146 3.47705H10.2851H13.6724C13.7341 3.47705 13.7937 3.49992 13.8396 3.54123L16.4557 5.89568C16.5084 5.9431 16.5384 6.01064 16.5384 6.08151V13.3635C16.5384 13.5015 16.4265 13.6135 16.2884 13.6135H8.59146C8.45339 13.6135 8.34146 13.5015 8.34146 13.3635V3.72706ZM8.59146 1.97705C7.62496 1.97705 6.84146 2.76056 6.84146 3.72706V4.88615H5.68237C4.71587 4.88615 3.93237 5.66965 3.93237 6.63615V16.2725C3.93237 17.239 4.71588 18.0226 5.68237 18.0226H12.4096C13.3761 18.0226 14.1596 17.239 14.1596 16.2725V15.1135H16.2884C17.2549 15.1135 18.0384 14.33 18.0384 13.3635V6.08151C18.0384 5.58541 17.8279 5.11262 17.4591 4.78074L14.8431 2.42629C14.5217 2.13708 14.1047 1.97705 13.6724 1.97705H10.2851H8.59146ZM12.6596 15.1135H8.59146C7.62497 15.1135 6.84146 14.33 6.84146 13.3635V6.38615H5.68237C5.5443 6.38615 5.43237 6.49807 5.43237 6.63615V16.2725C5.43237 16.4106 5.5443 16.5225 5.68237 16.5225H12.4096C12.5477 16.5225 12.6596 16.4106 12.6596 16.2725V15.1135Z" fill="#323338"/>
</svg>
