<svg width="24" height="24" viewBox="0 0 24 24" fill="none" xmlns="http://www.w3.org/2000/svg">
<path fill-rule="evenodd" clip-rule="evenodd" d="M1.25012 5.57129C1.25012 5.15708 1.58591 4.82129 2.00012 4.82129H21.9999C22.4141 4.82129 22.7499 5.15708 22.7499 5.57129C22.7499 5.9855 22.4141 6.32129 21.9999 6.32129H2.00012C1.58591 6.32129 1.25012 5.9855 1.25012 5.57129Z" fill="#14142B"/>
<path d="M4.85718 16.8997V5.67129C4.85718 5.61606 4.90195 5.57129 4.95718 5.57129H19.0427C19.0979 5.57129 19.1427 5.61606 19.1427 5.67129V16.8997C19.1427 19.7163 16.8594 21.9997 14.0427 21.9997H9.95718C7.14053 21.9997 4.85718 19.7163 4.85718 16.8997Z" fill="#14142B"/>
<path fill-rule="evenodd" clip-rule="evenodd" d="M5.60718 6.32129V16.8997C5.60718 19.3021 7.55474 21.2497 9.95718 21.2497H14.0427C16.4452 21.2497 18.3927 19.3021 18.3927 16.8997V6.32129H5.60718ZM4.10718 5.67129C4.10718 5.20185 4.48774 4.82129 4.95718 4.82129H19.0427C19.5122 4.82129 19.8927 5.20185 19.8927 5.67129V16.8997C19.8927 20.1305 17.2736 22.7497 14.0427 22.7497H9.95718C6.72631 22.7497 4.10718 20.1305 4.10718 16.8997V5.67129Z" fill="#14142B"/>
<path fill-rule="evenodd" clip-rule="evenodd" d="M9.14294 9.82129C9.55716 9.82129 9.89294 10.1571 9.89294 10.5713V16.2855C9.89294 16.6997 9.55716 17.0355 9.14294 17.0355C8.72873 17.0355 8.39294 16.6997 8.39294 16.2855V10.5713C8.39294 10.1571 8.72873 9.82129 9.14294 9.82129Z" fill="white"/>
<path fill-rule="evenodd" clip-rule="evenodd" d="M14.8571 9.82129C15.2713 9.82129 15.6071 10.1571 15.6071 10.5713V16.2855C15.6071 16.6997 15.2713 17.0355 14.8571 17.0355C14.4428 17.0355 14.1071 16.6997 14.1071 16.2855V10.5713C14.1071 10.1571 14.4428 9.82129 14.8571 9.82129Z" fill="white"/>
<path fill-rule="evenodd" clip-rule="evenodd" d="M9.71436 2.75C9.024 2.75 8.46436 3.30964 8.46436 4V5.57139C8.46436 5.9856 8.12857 6.32139 7.71436 6.32139C7.30014 6.32139 6.96436 5.9856 6.96436 5.57139V4C6.96436 2.48121 8.19557 1.25 9.71436 1.25H14.2857C15.8045 1.25 17.0357 2.48122 17.0357 4V5.57139C17.0357 5.9856 16.6999 6.32139 16.2857 6.32139C15.8715 6.32139 15.5357 5.9856 15.5357 5.57139V4C15.5357 3.30964 14.976 2.75 14.2857 2.75H9.71436Z" fill="#14142B"/>
</svg>
