<svg width="24" height="24" viewBox="0 0 24 24" fill="none" xmlns="http://www.w3.org/2000/svg">
<path d="M9.47804 19.0899L4.15199 20.4566C3.78373 20.5511 3.44892 20.2163 3.54342 19.848L4.91001 14.5218C4.93227 14.4351 4.97743 14.3559 5.04077 14.2925L14.9793 4.35363C15.1745 4.15836 15.4911 4.15836 15.6864 4.35362L19.6458 8.3131C19.8411 8.50837 19.8411 8.82496 19.6458 9.02023L9.70732 18.9591C9.64399 19.0225 9.5648 19.0676 9.47804 19.0899Z" fill="#14142B"/>
<path fill-rule="evenodd" clip-rule="evenodd" d="M16.2167 3.8234L20.1761 7.78289C20.6643 8.27105 20.6643 9.06253 20.1761 9.5507L10.2376 19.4896C10.0793 19.6479 9.88134 19.7608 9.66445 19.8165L4.33839 21.1832C3.41776 21.4195 2.58074 20.5824 2.81696 19.6617L4.18356 14.3355C4.23921 14.1186 4.35211 13.9207 4.51045 13.7623L14.449 3.82342C14.9371 3.33526 15.7285 3.33525 16.2167 3.8234ZM15.3328 5.06088L5.61946 14.7746L4.37489 19.6252L9.22537 18.3805L18.9387 8.6668L15.3328 5.06088Z" fill="#14142B"/>
<path fill-rule="evenodd" clip-rule="evenodd" d="M15.8644 8.13616C16.1573 8.42905 16.1573 8.90392 15.8645 9.19682L9.86469 15.1968C9.5718 15.4897 9.09693 15.4897 8.80403 15.1968C8.51113 14.904 8.51112 14.4291 8.80401 14.1362L14.8038 8.13618C15.0967 7.84329 15.5715 7.84328 15.8644 8.13616Z" fill="white"/>
<path fill-rule="evenodd" clip-rule="evenodd" d="M6.96943 15.9699C7.26232 15.677 7.73719 15.677 8.03009 15.9699L9.03009 16.9699C9.32298 17.2628 9.32298 17.7377 9.03009 18.0306C8.73719 18.3235 8.26232 18.3235 7.96943 18.0306L6.96943 17.0306C6.67653 16.7377 6.67653 16.2628 6.96943 15.9699Z" fill="white"/>
<path fill-rule="evenodd" clip-rule="evenodd" d="M17.4707 1.46966C17.7636 1.17677 18.2384 1.17678 18.5313 1.46968L22.5312 5.46968C22.824 5.76258 22.824 6.23745 22.5311 6.53034C22.2382 6.82323 21.7634 6.82322 21.4705 6.53032L17.4706 2.53032C17.1777 2.23742 17.1778 1.76255 17.4707 1.46966Z" fill="#14142B"/>
</svg>
