<svg width="24" height="24" viewBox="0 0 24 24" fill="none" xmlns="http://www.w3.org/2000/svg">
<path fill-rule="evenodd" clip-rule="evenodd" d="M1.25037 11.9998C1.25036 11.5856 1.58615 11.2498 2.00036 11.2498L12.1071 11.2497C12.5213 11.2497 12.8571 11.5855 12.8571 11.9997C12.8571 12.4139 12.5213 12.7497 12.1071 12.7497L2.00037 12.7498C1.58616 12.7498 1.25037 12.414 1.25037 11.9998Z" fill="black"/>
<path fill-rule="evenodd" clip-rule="evenodd" d="M9.49535 16.1572C9.1719 15.8985 9.11946 15.4265 9.37822 15.103L11.8605 12.0001L9.37822 8.89723C9.11946 8.57379 9.1719 8.10182 9.49535 7.84306C9.81879 7.5843 10.2908 7.63675 10.5495 7.96019L13.3567 11.4692C13.605 11.7796 13.605 12.2207 13.3567 12.5311L10.5495 16.0401C10.2908 16.3635 9.81879 16.416 9.49535 16.1572Z" fill="black"/>
<path fill-rule="evenodd" clip-rule="evenodd" d="M20 3.25L12 3.25003C11.8619 3.25003 11.75 3.36196 11.75 3.50003V4.14289C11.75 4.5571 11.4142 4.89289 11 4.89289C10.5858 4.89289 10.25 4.5571 10.25 4.14289V3.50003C10.25 2.53353 11.0335 1.75003 12 1.75003L20 1.75C20.9665 1.75 21.75 2.5335 21.75 3.5V20.5C21.75 21.4665 20.9665 22.25 20 22.25H12C11.0335 22.25 10.25 21.4665 10.25 20.5V19.8572C10.25 19.443 10.5858 19.1072 11 19.1072C11.4142 19.1072 11.75 19.443 11.75 19.8572V20.5C11.75 20.6381 11.8619 20.75 12 20.75H20C20.1381 20.75 20.25 20.6381 20.25 20.5V3.5C20.25 3.36193 20.1381 3.25 20 3.25Z" fill="black"/>
</svg>
