<svg width="340" height="200" viewBox="0 0 340 200" fill="none" xmlns="http://www.w3.org/2000/svg">
<rect x="44" width="250" height="200" fill="white"/>
<path fill-rule="evenodd" clip-rule="evenodd" d="M107 134H198C198.515 134 199.017 133.944 199.5 133.839C199.983 133.944 200.485 134 201 134H253C256.866 134 260 130.866 260 127C260 123.134 256.866 120 253 120H247C243.134 120 240 116.866 240 113C240 109.134 243.134 106 247 106H266C269.866 106 273 102.866 273 99C273 95.134 269.866 92 266 92H244C247.866 92 251 88.866 251 85C251 81.134 247.866 78 244 78H180C183.866 78 187 74.866 187 71C187 67.134 183.866 64 180 64H123C119.134 64 116 67.134 116 71C116 74.866 119.134 78 123 78H83C79.134 78 76 81.134 76 85C76 88.866 79.134 92 83 92H108C111.866 92 115 95.134 115 99C115 102.866 111.866 106 108 106H68C64.134 106 61 109.134 61 113C61 116.866 64.134 120 68 120H107C103.134 120 100 123.134 100 127C100 130.866 103.134 134 107 134ZM270 134C273.866 134 277 130.866 277 127C277 123.134 273.866 120 270 120C266.134 120 263 123.134 263 127C263 130.866 266.134 134 270 134Z" fill="#F3F7FF"/>
<path fill-rule="evenodd" clip-rule="evenodd" d="M130.278 139.123L126.208 139.695C124.021 140.002 121.998 138.478 121.691 136.291L110.557 57.0691C110.249 54.8815 111.773 52.8588 113.961 52.5513L192.192 41.5567C194.38 41.2492 196.403 42.7734 196.71 44.961C196.71 44.961 197.422 50.0264 197.667 51.7688" fill="white"/>
<path fill-rule="evenodd" clip-rule="evenodd" d="M132.805 134.712L129.109 135.238C127.123 135.52 125.289 134.139 125.013 132.153L115.018 60.2279C114.742 58.2417 116.128 56.4028 118.115 56.1204L189.152 46.0237C191.139 45.7413 192.973 47.1225 193.249 49.1087L194.108 55.2894C194.154 55.6239 197.223 77.8233 203.313 121.888C203.619 124.1 202.093 126.145 199.906 126.454C199.882 126.457 199.858 126.461 199.835 126.463L132.805 134.712Z" fill="#E8F0FE"/>
<path d="M130.278 139.123L126.208 139.695C124.021 140.002 121.998 138.478 121.691 136.291L110.557 57.0691C110.249 54.8815 111.773 52.8588 113.961 52.5513L192.192 41.5567C194.38 41.2492 196.403 42.7734 196.71 44.961C196.71 44.961 197.422 50.0264 197.667 51.7688" stroke="#1F64E7" stroke-width="2.5" stroke-linecap="round"/>
<path d="M198.5 56.3796L199 59.5" stroke="#1F64E7" stroke-width="2.5" stroke-linecap="round"/>
<path d="M143.822 60.4883C143.981 58.9779 145.334 57.8821 146.844 58.0408L225.411 66.2986C226.922 66.4573 228.018 67.8105 227.859 69.321L219.497 148.883C219.338 150.393 217.985 151.489 216.474 151.33L137.907 143.072C136.397 142.914 135.301 141.561 135.459 140.05L143.822 60.4883Z" fill="white" stroke="#1F64E7" stroke-width="2.5"/>
<path fill-rule="evenodd" clip-rule="evenodd" d="M150.693 69.2546C150.866 67.6068 152.342 66.4115 153.99 66.5846L216.645 73.1699C218.293 73.3431 219.488 74.8193 219.315 76.4671L213.775 129.177C213.602 130.825 212.126 132.02 210.478 131.847L147.823 125.261C146.175 125.088 144.98 123.612 145.153 121.964L150.693 69.2546Z" fill="white"/>
<path fill-rule="evenodd" clip-rule="evenodd" d="M153.741 109.878L163.538 103.27C165.172 102.168 167.365 102.42 168.706 103.864L175.879 111.587C176.237 111.972 176.833 112.014 177.242 111.683L192.581 99.2534C194.429 97.7561 197.167 98.1922 198.459 100.189L208.44 115.627L209.873 118.019L209.187 126.143C209.139 126.704 208.639 127.115 208.08 127.053L151.117 120.724C150.575 120.664 150.182 120.181 150.232 119.639L150.987 111.44L153.741 109.878Z" fill="#E8F0FE"/>
<path d="M151.936 69.3853C152.037 68.4241 152.898 67.7268 153.86 67.8278L216.514 74.4131C217.476 74.5141 218.173 75.3752 218.072 76.3364L212.532 129.046C212.431 130.007 211.57 130.705 210.609 130.604L147.954 124.018C146.992 123.917 146.295 123.056 146.396 122.095L151.936 69.3853Z" stroke="#1F64E7" stroke-width="2.5"/>
<circle cx="166.032" cy="85.9494" r="6" transform="rotate(6 166.032 85.9494)" fill="#F3F7FF" stroke="#1F64E7" stroke-width="2.5"/>
<path d="M151.729 111.425C155.666 108.706 163.538 103.27 163.538 103.27C165.172 102.168 167.365 102.42 168.706 103.864L175.879 111.587C176.237 111.972 176.833 112.014 177.242 111.683L192.581 99.2534C194.298 97.8626 196.817 98.1266 198.207 99.843C198.297 99.9539 198.381 100.07 198.459 100.189C198.459 100.189 207.427 114.42 209.523 117.745" stroke="#1F64E7" stroke-width="2.5" stroke-linecap="round"/>
<path d="M128.624 193L122.924 183.74H122.864L122.944 193H119.624V178.84H123.524L129.204 188.08H129.264L129.184 178.84H132.504V193H128.624ZM145.805 187.98C145.805 188.793 145.658 189.533 145.365 190.2C145.072 190.853 144.672 191.413 144.165 191.88C143.658 192.333 143.072 192.687 142.405 192.94C141.738 193.193 141.025 193.32 140.265 193.32C139.518 193.32 138.805 193.193 138.125 192.94C137.458 192.687 136.872 192.333 136.365 191.88C135.872 191.413 135.478 190.853 135.185 190.2C134.892 189.533 134.745 188.793 134.745 187.98C134.745 187.167 134.892 186.433 135.185 185.78C135.478 185.127 135.872 184.573 136.365 184.12C136.872 183.667 137.458 183.32 138.125 183.08C138.805 182.84 139.518 182.72 140.265 182.72C141.025 182.72 141.738 182.84 142.405 183.08C143.072 183.32 143.658 183.667 144.165 184.12C144.672 184.573 145.072 185.127 145.365 185.78C145.658 186.433 145.805 187.167 145.805 187.98ZM142.645 187.98C142.645 187.66 142.592 187.347 142.485 187.04C142.378 186.733 142.225 186.467 142.025 186.24C141.825 186 141.578 185.807 141.285 185.66C140.992 185.513 140.652 185.44 140.265 185.44C139.878 185.44 139.538 185.513 139.245 185.66C138.952 185.807 138.705 186 138.505 186.24C138.318 186.467 138.172 186.733 138.065 187.04C137.972 187.347 137.925 187.66 137.925 187.98C137.925 188.3 137.972 188.613 138.065 188.92C138.172 189.227 138.325 189.507 138.525 189.76C138.725 190 138.972 190.193 139.265 190.34C139.558 190.487 139.898 190.56 140.285 190.56C140.672 190.56 141.012 190.487 141.305 190.34C141.598 190.193 141.845 190 142.045 189.76C142.245 189.507 142.392 189.227 142.485 188.92C142.592 188.613 142.645 188.3 142.645 187.98ZM156.442 179.86C156.442 180.113 156.388 180.353 156.282 180.58C156.188 180.793 156.055 180.98 155.882 181.14C155.722 181.3 155.522 181.427 155.282 181.52C155.055 181.613 154.815 181.66 154.562 181.66C154.028 181.66 153.582 181.487 153.222 181.14C152.862 180.78 152.682 180.353 152.682 179.86C152.682 179.62 152.728 179.393 152.822 179.18C152.915 178.953 153.048 178.76 153.222 178.6C153.395 178.44 153.595 178.313 153.822 178.22C154.048 178.113 154.295 178.06 154.562 178.06C154.815 178.06 155.055 178.107 155.282 178.2C155.522 178.293 155.722 178.42 155.882 178.58C156.055 178.74 156.188 178.933 156.282 179.16C156.388 179.373 156.442 179.607 156.442 179.86ZM152.922 193V183.04H156.202V193H152.922ZM171.52 193V187.56C171.52 187.28 171.5 187.013 171.46 186.76C171.42 186.493 171.346 186.267 171.24 186.08C171.133 185.893 170.986 185.747 170.8 185.64C170.626 185.52 170.393 185.46 170.1 185.46C169.82 185.46 169.573 185.52 169.36 185.64C169.16 185.76 168.986 185.92 168.84 186.12C168.706 186.32 168.606 186.553 168.54 186.82C168.473 187.073 168.44 187.34 168.44 187.62V193H165.16V187.32C165.16 186.747 165.046 186.293 164.82 185.96C164.593 185.627 164.233 185.46 163.74 185.46C163.22 185.46 162.813 185.667 162.52 186.08C162.24 186.493 162.1 187 162.1 187.6V193H158.8V183.04H161.98V184.42H162.02C162.14 184.207 162.286 184 162.46 183.8C162.646 183.6 162.866 183.427 163.12 183.28C163.373 183.12 163.653 182.993 163.96 182.9C164.28 182.807 164.626 182.76 165 182.76C165.72 182.76 166.326 182.907 166.82 183.2C167.326 183.493 167.72 183.913 168 184.46C168.333 183.94 168.76 183.527 169.28 183.22C169.8 182.913 170.433 182.76 171.18 182.76C171.86 182.76 172.426 182.887 172.88 183.14C173.346 183.38 173.72 183.7 174 184.1C174.28 184.487 174.48 184.927 174.6 185.42C174.733 185.9 174.8 186.373 174.8 186.84V193H171.52ZM183.156 188.66H182.736C182.376 188.66 182.009 188.68 181.636 188.72C181.276 188.747 180.949 188.807 180.656 188.9C180.376 188.993 180.143 189.133 179.956 189.32C179.769 189.493 179.676 189.727 179.676 190.02C179.676 190.207 179.716 190.367 179.796 190.5C179.889 190.633 180.003 190.74 180.136 190.82C180.269 190.9 180.423 190.96 180.596 191C180.769 191.027 180.936 191.04 181.096 191.04C181.763 191.04 182.269 190.86 182.616 190.5C182.976 190.127 183.156 189.627 183.156 189V188.66ZM177.136 184.4C177.723 183.84 178.403 183.42 179.176 183.14C179.963 182.86 180.763 182.72 181.576 182.72C182.416 182.72 183.123 182.827 183.696 183.04C184.283 183.24 184.756 183.56 185.116 184C185.476 184.427 185.736 184.973 185.896 185.64C186.069 186.293 186.156 187.073 186.156 187.98V193H183.156V191.94H183.096C182.843 192.353 182.456 192.673 181.936 192.9C181.429 193.127 180.876 193.24 180.276 193.24C179.876 193.24 179.463 193.187 179.036 193.08C178.609 192.973 178.216 192.8 177.856 192.56C177.509 192.32 177.223 192 176.996 191.6C176.769 191.2 176.656 190.707 176.656 190.12C176.656 189.4 176.849 188.82 177.236 188.38C177.636 187.94 178.143 187.6 178.756 187.36C179.383 187.12 180.076 186.96 180.836 186.88C181.596 186.8 182.336 186.76 183.056 186.76V186.6C183.056 186.107 182.883 185.747 182.536 185.52C182.189 185.28 181.763 185.16 181.256 185.16C180.789 185.16 180.336 185.26 179.896 185.46C179.469 185.66 179.103 185.9 178.796 186.18L177.136 184.4ZM199.164 192.06C199.164 193.033 199.024 193.88 198.744 194.6C198.464 195.32 198.071 195.913 197.564 196.38C197.058 196.86 196.438 197.213 195.704 197.44C194.984 197.68 194.184 197.8 193.304 197.8C192.424 197.8 191.518 197.667 190.584 197.4C189.664 197.133 188.864 196.747 188.184 196.24L189.824 193.9C190.304 194.327 190.831 194.64 191.404 194.84C191.991 195.053 192.564 195.16 193.124 195.16C194.084 195.16 194.791 194.907 195.244 194.4C195.711 193.893 195.944 193.22 195.944 192.38V191.78H195.884C195.578 192.18 195.164 192.5 194.644 192.74C194.124 192.98 193.531 193.1 192.864 193.1C192.104 193.1 191.431 192.967 190.844 192.7C190.258 192.42 189.758 192.047 189.344 191.58C188.944 191.113 188.638 190.573 188.424 189.96C188.211 189.333 188.104 188.673 188.104 187.98C188.104 187.287 188.211 186.627 188.424 186C188.638 185.373 188.944 184.82 189.344 184.34C189.758 183.86 190.258 183.48 190.844 183.2C191.431 182.907 192.098 182.76 192.844 182.76C193.471 182.76 194.071 182.887 194.644 183.14C195.218 183.393 195.678 183.787 196.024 184.32H196.064V183.04H199.164V192.06ZM196.044 187.96C196.044 187.627 195.984 187.307 195.864 187C195.758 186.693 195.598 186.427 195.384 186.2C195.171 185.96 194.918 185.773 194.624 185.64C194.331 185.507 193.998 185.44 193.624 185.44C193.251 185.44 192.918 185.507 192.624 185.64C192.344 185.773 192.104 185.953 191.904 186.18C191.704 186.407 191.551 186.673 191.444 186.98C191.338 187.287 191.284 187.613 191.284 187.96C191.284 188.293 191.338 188.613 191.444 188.92C191.551 189.227 191.704 189.5 191.904 189.74C192.104 189.967 192.344 190.153 192.624 190.3C192.918 190.433 193.251 190.5 193.624 190.5C193.998 190.5 194.331 190.433 194.624 190.3C194.931 190.153 195.184 189.967 195.384 189.74C195.598 189.513 195.758 189.247 195.864 188.94C195.984 188.633 196.044 188.307 196.044 187.96ZM208.628 186.88C208.628 186.36 208.462 185.913 208.128 185.54C207.808 185.167 207.322 184.98 206.668 184.98C206.348 184.98 206.055 185.033 205.788 185.14C205.522 185.233 205.288 185.367 205.088 185.54C204.888 185.713 204.728 185.92 204.608 186.16C204.488 186.387 204.422 186.627 204.408 186.88H208.628ZM211.648 188.14C211.648 188.273 211.648 188.407 211.648 188.54C211.648 188.673 211.642 188.8 211.628 188.92H204.408C204.435 189.2 204.515 189.453 204.648 189.68C204.795 189.907 204.975 190.107 205.188 190.28C205.415 190.44 205.662 190.567 205.928 190.66C206.208 190.753 206.495 190.8 206.788 190.8C207.308 190.8 207.748 190.707 208.108 190.52C208.468 190.32 208.762 190.067 208.988 189.76L211.268 191.2C210.802 191.88 210.182 192.407 209.408 192.78C208.648 193.14 207.762 193.32 206.748 193.32C206.002 193.32 205.295 193.207 204.628 192.98C203.962 192.74 203.375 192.4 202.868 191.96C202.375 191.507 201.982 190.953 201.688 190.3C201.408 189.647 201.268 188.9 201.268 188.06C201.268 187.247 201.408 186.513 201.688 185.86C201.968 185.193 202.348 184.633 202.828 184.18C203.308 183.713 203.875 183.353 204.528 183.1C205.182 182.847 205.888 182.72 206.648 182.72C207.382 182.72 208.055 182.847 208.668 183.1C209.282 183.34 209.808 183.693 210.248 184.16C210.688 184.627 211.028 185.193 211.268 185.86C211.522 186.527 211.648 187.287 211.648 188.14ZM219.542 185.98C219.276 185.727 218.962 185.513 218.602 185.34C218.242 185.167 217.862 185.08 217.462 185.08C217.156 185.08 216.869 185.14 216.602 185.26C216.349 185.38 216.222 185.587 216.222 185.88C216.222 186.16 216.362 186.36 216.642 186.48C216.936 186.6 217.402 186.733 218.042 186.88C218.416 186.96 218.789 187.073 219.162 187.22C219.549 187.367 219.896 187.56 220.202 187.8C220.509 188.04 220.756 188.333 220.942 188.68C221.129 189.027 221.222 189.44 221.222 189.92C221.222 190.547 221.096 191.08 220.842 191.52C220.589 191.947 220.256 192.293 219.842 192.56C219.442 192.827 218.989 193.02 218.482 193.14C217.976 193.26 217.469 193.32 216.962 193.32C216.149 193.32 215.349 193.193 214.562 192.94C213.789 192.673 213.142 192.287 212.622 191.78L214.462 189.84C214.756 190.16 215.116 190.427 215.542 190.64C215.969 190.853 216.422 190.96 216.902 190.96C217.169 190.96 217.429 190.9 217.682 190.78C217.949 190.647 218.082 190.42 218.082 190.1C218.082 189.793 217.922 189.567 217.602 189.42C217.282 189.273 216.782 189.12 216.102 188.96C215.756 188.88 215.409 188.773 215.062 188.64C214.716 188.507 214.402 188.327 214.122 188.1C213.856 187.873 213.636 187.593 213.462 187.26C213.289 186.927 213.202 186.527 213.202 186.06C213.202 185.46 213.329 184.953 213.582 184.54C213.836 184.113 214.162 183.767 214.562 183.5C214.962 183.233 215.402 183.04 215.882 182.92C216.376 182.787 216.862 182.72 217.342 182.72C218.089 182.72 218.816 182.84 219.522 183.08C220.242 183.307 220.849 183.653 221.342 184.12L219.542 185.98Z" fill="#4A4A4A"/>
</svg>
