<svg width="22" height="22" viewBox="0 0 22 22" fill="none" xmlns="http://www.w3.org/2000/svg">
<g clip-path="url(#clip0_746_9922)">
<path fill-rule="evenodd" clip-rule="evenodd" d="M8.2502 4.9498H17.6002C17.9039 4.9498 18.1502 5.19605 18.1502 5.4998V16.4998C18.1502 16.8035 17.9039 17.0498 17.6002 17.0498H8.2502V4.9498ZM6.6002 4.9498H4.4002C4.09644 4.9498 3.8502 5.19605 3.8502 5.4998V16.4998C3.8502 16.8035 4.09644 17.0498 4.4002 17.0498H6.6002V4.9498ZM2.2002 5.4998C2.2002 4.28478 3.18517 3.2998 4.4002 3.2998H17.6002C18.8153 3.2998 19.8002 4.28478 19.8002 5.4998V16.4998C19.8002 17.7149 18.8153 18.6998 17.6002 18.6998H4.4002C3.18517 18.6998 2.2002 17.7149 2.2002 16.4998V5.4998Z" fill="#676879"/>
</g>
<defs>
<clipPath id="clip0_746_9922">
<rect width="22" height="22" fill="white"/>
</clipPath>
</defs>
</svg>
