<svg xmlns="http://www.w3.org/2000/svg" height="24" viewBox="0 -960 960 960" width="24"><path d="M260-180.001q-82.922 0-141.461-57.529-58.538-57.528-58.538-140.624 0-74.538 47.962-131.115 47.962-56.576 118.961-67.037 19.231-89.693 90.192-146.693 70.961-57 162.884-57 108.642 0 184.32 75.679 75.679 75.678 75.679 184.32v20.001h12.308q63.23 4.923 105.461 50.846Q899.999-403.23 899.999-340q0 66.922-46.154 113.461-46.153 46.538-113.076 46.538H522.308q-30.308 0-51.307-21-21-21-21-51.308v-219.077L376-398.616l-42.153-41.769L480-586.537l146.153 146.152L584-398.616l-74.001-72.77v219.077q0 4.616 3.847 8.463 3.846 3.846 8.462 3.846H740q42 0 71-29t29-71q0-42-29-71t-71-29h-60v-80q0-83-58.5-141.5T480-720q-83 0-141.5 58.5T280-520h-20.769q-56.846 0-98.039 41Q120-438 120-380t41 99q41 41 99 41h100v59.999H260Zm220-270Z"/></svg>