<svg xmlns="http://www.w3.org/2000/svg" height="24" viewBox="0 -960 960 960" width="24"><path d="M180.001-100.001v-687.69q0-30.308 21-51.308t51.308-21h455.382q30.308 0 51.308 21t21 51.308v687.69H180.001ZM240-160h480v-627.691q0-4.616-3.846-8.463-3.847-3.846-8.463-3.846H252.309q-4.616 0-8.463 3.846-3.846 3.847-3.846 8.463V-160Zm380-270.001q20.769 0 35.384-14.615 14.615-14.615 14.615-35.384t-14.615-35.384Q640.769-529.999 620-529.999t-35.384 14.615Q570.001-500.769 570.001-480t14.615 35.384q14.615 14.615 35.384 14.615ZM240-160v-640 640Z"/></svg>