<svg width="19" height="18" viewBox="0 0 19 18" fill="none" xmlns="http://www.w3.org/2000/svg">
<g clip-path="url(#clip0_517_3464)">
<path fill-rule="evenodd" clip-rule="evenodd" d="M2.82265 5.7378L8.12516 1.64041C8.1249 1.64062 8.12543 1.64022 8.12516 1.64041C8.12526 1.64033 8.12614 1.63967 8.12623 1.63959C8.5484 1.31327 9.06692 1.13623 9.60052 1.13623C10.1341 1.13623 10.6526 1.31327 11.0748 1.63959C11.0745 1.63934 11.0751 1.63983 11.0748 1.63959C11.0749 1.63963 11.0758 1.64037 11.0759 1.64041L16.3775 5.73713C16.6687 5.96211 16.9054 6.25143 17.0678 6.58167C17.2304 6.91224 17.315 7.27566 17.3153 7.64402V15.4398C17.3153 16.0792 17.0614 16.6924 16.6092 17.1445C16.1571 17.5966 15.544 17.8505 14.9046 17.8505H11.0474C10.5124 17.8505 9.99771 17.6529 9.601 17.2981C9.2043 17.6529 8.68963 17.8505 8.15458 17.8505H4.29743C3.65807 17.8505 3.0449 17.5966 2.59279 17.1445C2.1407 16.6924 1.88672 16.0792 1.88672 15.4398V7.64546C1.88672 7.64538 1.88672 7.64553 1.88672 7.64546C1.88665 7.27809 1.97054 6.91534 2.132 6.58533C2.29371 6.25481 2.52894 5.96568 2.81967 5.74012L2.82265 5.7378ZM3.81529 7.64522C3.81523 7.57163 3.832 7.499 3.86434 7.4329C3.89669 7.36679 3.94373 7.30897 4.00189 7.26386L9.30544 3.16564C9.38993 3.10028 9.49371 3.0648 9.60052 3.0648C9.70733 3.0648 9.81112 3.10028 9.8956 3.16564L15.1991 7.26386C15.2575 7.30887 15.3047 7.36665 15.3372 7.43276C15.3697 7.49887 15.3867 7.57155 15.3867 7.64522V15.4398C15.3867 15.5677 15.3359 15.6904 15.2455 15.7808C15.155 15.8712 15.0325 15.922 14.9046 15.922H11.0474C10.9835 15.922 10.9222 15.8966 10.877 15.8514C10.8318 15.8062 10.8064 15.7449 10.8064 15.6809V12.2256C10.8064 11.9059 10.6794 11.5993 10.4533 11.3733C10.2273 11.1472 9.92068 11.0202 9.601 11.0202C9.28132 11.0202 8.97473 11.1472 8.74869 11.3733C8.52264 11.5993 8.39565 11.9059 8.39565 12.2256V15.6809C8.39565 15.7449 8.37025 15.8062 8.32504 15.8514C8.27983 15.8966 8.21851 15.922 8.15458 15.922H4.29743C4.16956 15.922 4.04692 15.8712 3.95651 15.7808C3.86609 15.6904 3.81529 15.5677 3.81529 15.4398V7.64522Z" fill="white"/>
<path d="M15.3878 7.64536C15.3878 7.57169 15.3709 7.49901 15.3383 7.4329C15.3058 7.36679 15.2586 7.30901 15.2002 7.26399L9.89672 3.16578C9.81223 3.10041 9.70845 3.06494 9.60163 3.06494C9.49483 3.06494 9.39105 3.10041 9.30656 3.16578L4.003 7.26399C3.94485 7.30911 3.89781 7.36693 3.86546 7.43304C3.83312 7.49914 3.81634 7.57177 3.81641 7.64536V15.44C3.81641 15.5679 3.8672 15.6905 3.95763 15.7809C4.04804 15.8713 4.17067 15.9221 4.29855 15.9221H8.15569C8.21963 15.9221 8.28095 15.8968 8.32615 15.8515C8.37137 15.8064 8.39676 15.7451 8.39676 15.681V12.2257C8.39676 11.906 8.52375 11.5995 8.74981 11.3734C8.97585 11.1474 9.28244 11.0204 9.60212 11.0204C9.9218 11.0204 10.2284 11.1474 10.4544 11.3734C10.6805 11.5995 10.8075 11.906 10.8075 12.2257V15.681C10.8075 15.7451 10.8329 15.8064 10.8781 15.8515C10.9233 15.8968 10.9846 15.9221 11.0485 15.9221H14.9057C15.0336 15.9221 15.1561 15.8713 15.2467 15.7809C15.337 15.6905 15.3878 15.5679 15.3878 15.44V7.64536Z" fill="#323338"/>
</g>
<defs>
<clipPath id="clip0_517_3464">
<rect width="18" height="18" fill="white" transform="translate(0.601562)"/>
</clipPath>
</defs>
</svg>
