<svg width="17" height="15" viewBox="0 0 17 15" fill="none" xmlns="http://www.w3.org/2000/svg">
<path d="M12 2.25V2.75H12.5H13.25C13.7989 2.75 14.25 3.20114 14.25 3.75V14.25C14.25 14.7989 13.7989 15.25 13.25 15.25H2.75C2.19527 15.25 1.75 14.8005 1.75 14.25V3.75C1.75 3.19951 2.19527 2.75 2.75 2.75H3.5H4V2.25V1.25H4.5V2.25V2.75H5H11H11.5V2.25V1.25H12V2.25ZM12.5 14H13V13.5V12.75C13 12.1932 12.7184 11.7379 12.3515 11.3907C11.987 11.0459 11.5055 10.7737 11.0061 10.564C10.0093 10.1453 8.81862 9.925 8 9.925C7.18138 9.925 5.99069 10.1453 4.99388 10.564C4.49451 10.7737 4.01299 11.0459 3.64855 11.3907C3.28164 11.7379 3 12.1932 3 12.75V13.5V14H3.5H12.5ZM10.75 6.75C10.75 5.22886 9.52114 4 8 4C6.47886 4 5.25 5.22886 5.25 6.75C5.25 8.27114 6.47886 9.5 8 9.5C9.52114 9.5 10.75 8.27114 10.75 6.75Z" fill="#E1C326" stroke="white"/>
</svg>
