<svg width="35" height="35" viewBox="0 0 35 35" fill="none" xmlns="http://www.w3.org/2000/svg">
<rect width="35" height="35" fill="white"/>
<path fill-rule="evenodd" clip-rule="evenodd" d="M24.5833 30H10.4167C7.42521 30 5 27.5748 5 24.5833V10.4167C5 7.42521 7.42521 5 10.4167 5H24.5833C27.5748 5 30 7.42521 30 10.4167V24.5833C30 27.5748 27.5748 30 24.5833 30" fill="#00B900"/>
<path fill-rule="evenodd" clip-rule="evenodd" d="M26.5618 16.4013C26.5618 12.3284 22.4787 9.01465 17.4595 9.01465C12.441 9.01465 8.35742 12.3284 8.35742 16.4013C8.35742 20.0528 11.5955 23.1109 15.9697 23.689C16.2662 23.753 16.6697 23.8843 16.7716 24.1378C16.8635 24.368 16.8316 24.7284 16.801 24.9607C16.801 24.9607 16.6943 25.603 16.6712 25.7401C16.6314 25.9701 16.4883 26.6401 17.4595 26.2307C18.4312 25.8213 22.7016 23.1443 24.6114 20.9461H24.611C25.9299 19.4995 26.5618 18.0315 26.5618 16.4013" fill="white"/>
<path fill-rule="evenodd" clip-rule="evenodd" d="M12.3369 17.7605H14.0717C14.1696 17.7605 14.2487 17.8401 14.2487 17.938V18.5763C14.2487 18.6742 14.1696 18.7538 14.0717 18.7538H11.5208C11.4733 18.7538 11.4304 18.7348 11.3983 18.7042C11.3978 18.7034 11.397 18.7028 11.3963 18.7023C11.3961 18.7021 11.396 18.702 11.3958 18.7019C11.3951 18.7012 11.3945 18.7004 11.394 18.6997C11.3939 18.6995 11.3937 18.6992 11.3935 18.699C11.3629 18.6673 11.3438 18.6242 11.3438 18.5767V18.5763V14.6107C11.3438 14.5128 11.4233 14.4336 11.521 14.4336H12.1596C12.2575 14.4336 12.3369 14.5128 12.3369 14.6107V17.7605ZM15.6111 14.4336H14.9726C14.8749 14.4336 14.7953 14.513 14.7953 14.6107V18.5767C14.7953 18.6744 14.8749 18.7536 14.9726 18.7536H15.6111C15.709 18.7536 15.7884 18.6744 15.7884 18.5767V14.6107C15.7884 14.513 15.709 14.4336 15.6111 14.4336ZM19.3665 14.4336H20.0048C20.1027 14.4336 20.1821 14.513 20.1821 14.6107V18.5767C20.1821 18.6744 20.1027 18.7536 20.0048 18.7536H19.3665C19.3504 18.7536 19.3352 18.7515 19.3211 18.7476L19.3197 18.7473L19.3184 18.7471L19.3063 18.7432C19.3046 18.7426 19.3029 18.7417 19.3011 18.7411L19.2923 18.7376C19.2894 18.7363 19.2867 18.7348 19.284 18.7334L19.2827 18.7327C19.2814 18.732 19.2801 18.7313 19.279 18.7305C19.2752 18.7286 19.2715 18.7263 19.2679 18.724C19.2673 18.7234 19.2667 18.723 19.2661 18.7226C19.2492 18.7111 19.2338 18.6965 19.2211 18.6788L17.4013 16.2213V18.5767C17.4013 18.6744 17.3219 18.7536 17.224 18.7536H16.5854C16.4877 18.7536 16.4081 18.6744 16.4081 18.5767V14.6107C16.4081 14.513 16.4877 14.4336 16.5854 14.4336H17.224L17.2302 14.4338L17.2394 14.4344L17.2425 14.4348L17.2425 14.4348C17.2446 14.435 17.2467 14.4353 17.2488 14.4357C17.2511 14.4359 17.2536 14.4363 17.2561 14.4367C17.2596 14.4373 17.2629 14.438 17.2663 14.4388L17.2725 14.4405L17.2725 14.4405C17.2761 14.4415 17.2796 14.4426 17.2829 14.444C17.285 14.4446 17.2867 14.4453 17.2888 14.4461C17.2915 14.4469 17.2941 14.4481 17.2967 14.4493L17.2967 14.4493L17.299 14.4503L17.3046 14.453C17.3077 14.4546 17.3109 14.4565 17.314 14.4584L17.3156 14.4592C17.3169 14.4599 17.3182 14.4606 17.3194 14.4615L17.3286 14.4678L17.3291 14.4682C17.3306 14.4693 17.3318 14.4702 17.3331 14.4715C17.3353 14.473 17.3374 14.4748 17.3395 14.4765L17.3427 14.4792L17.3459 14.4823C17.3494 14.4857 17.3531 14.4894 17.3567 14.4932C17.3569 14.4936 17.3573 14.494 17.3577 14.4944C17.3625 14.5001 17.3673 14.5061 17.3715 14.5123L19.1892 16.9669V14.6107C19.1892 14.513 19.2684 14.4336 19.3665 14.4336ZM23.7077 15.2494C23.7077 15.3473 23.6285 15.4267 23.5306 15.4267H21.796V16.0969H23.5306C23.6285 16.0969 23.7077 16.1765 23.7077 16.2744V16.9128C23.7077 17.0109 23.6285 17.0901 23.5306 17.0901H21.796V17.7605H23.5306C23.6285 17.7605 23.7077 17.8401 23.7077 17.938V18.5763C23.7077 18.6742 23.6285 18.7538 23.5306 18.7538H20.9798C20.932 18.7538 20.8891 18.7346 20.8575 18.704L20.8565 18.7035L20.8548 18.7019C20.8539 18.7011 20.8529 18.7001 20.8525 18.699C20.8216 18.6673 20.8027 18.6242 20.8027 18.5767V18.5763V14.6109V14.6107C20.8027 14.5632 20.8216 14.5203 20.852 14.4886C20.8527 14.4876 20.8537 14.4865 20.8548 14.4855L20.8556 14.4848L20.8556 14.4848L20.8556 14.4848C20.856 14.4845 20.8565 14.4841 20.8568 14.4836C20.8887 14.4528 20.9318 14.4336 20.9798 14.4336H20.9802H23.5306C23.6285 14.4336 23.7077 14.513 23.7077 14.6109V15.2494Z" fill="#00B900"/>
</svg>
